<?xml version="1.0" encoding="utf-8" ?>
<svg xmlns="http://www.w3.org/2000/svg" xmlns:xlink="http://www.w3.org/1999/xlink" width="1024" height="1024">
	<defs>
		<linearGradient id="gradient_0" gradientUnits="userSpaceOnUse" x1="370.94739" y1="788.64941" x2="552.86377" y2="190.71794">
			<stop offset="0" stop-color="#FF9F1C"/>
			<stop offset="1" stop-color="#FFB926"/>
		</linearGradient>
	</defs>
	<path fill="url(#gradient_0)" d="M513.457 830.132C502.111 829.778 491.994 827.184 481.713 822.355C470.643 817.155 460.391 810.194 449.888 803.953L395.656 771.89L319.626 727.171C300.133 715.781 278.514 706.181 262.073 690.379C249.064 677.875 240.69 662.618 236.795 645.029C233.147 628.55 234.08 611.311 234.356 594.552Q234.582 578.469 234.523 562.385C234.542 506.224 235.323 449.936 234.176 393.792C233.632 367.105 238.167 341.276 257.428 321.423C262.992 315.688 269.341 310.89 275.986 306.485C290.922 296.585 306.836 288.051 322.249 278.914L406.743 228.969Q420.372 221.187 433.743 212.969C445.825 205.435 457.978 197.217 471.022 191.458Q473.504 190.364 476.04 189.399Q478.575 188.434 481.157 187.602Q483.738 186.769 486.36 186.07Q488.981 185.372 491.635 184.809Q494.288 184.247 496.968 183.822Q499.647 183.397 502.344 183.111Q505.042 182.825 507.751 182.678Q510.459 182.531 513.172 182.524C524.284 182.451 537.625 184.134 547.961 188.556C565.187 195.926 581.387 206.899 597.567 216.351L680.265 264.415L740.29 299.192C750.596 305.108 771.684 315.37 779.348 322.872C778.952 348.876 778.009 375.242 779.502 401.212C756.837 416.156 732.373 428.482 709.752 443.501C704.283 444.163 664.717 420.493 656.059 416.364C656.069 426.15 655.732 436.11 656.112 445.879Q685.444 463.428 715.033 480.538C724.701 486.113 737.158 491.591 745.602 498.737C748.203 505.662 746.133 557.584 746.091 569.58C737.303 575.335 686.572 608.303 680.32 608.631C672.777 603.426 664.457 599.487 656.634 594.741C656.527 595.061 656.385 595.372 656.313 595.702C655.253 600.551 656.05 616.332 656.051 622.35C656.052 638.499 655.834 654.681 656.241 670.824C657.234 710.303 660.147 743.504 626.993 771.945C612.839 784.087 595.629 792.167 579.664 801.583C566.229 809.506 553.428 818.826 538.897 824.714Q535.867 825.945 532.741 826.905Q529.615 827.864 526.416 828.546Q523.218 829.227 519.971 829.624Q516.725 830.022 513.457 830.132ZM513.444 681.851C512.925 664.538 513.303 647.111 513.306 629.786L513.325 534.376L513.342 398.238C513.344 374.243 513.091 350.224 513.395 326.232Q472.701 350.023 432.38 374.443C419.04 382.412 403.745 389.202 391.944 399.365C385.646 404.789 380.494 411.696 378.341 419.818C373.984 436.255 376.048 464.857 376.377 482.789Q376.559 502.581 376.517 522.374C376.526 542.447 374.661 563.287 376.636 583.235C377.25 589.436 378.81 595.342 382.002 600.734C383.328 602.973 385.044 605.179 386.935 606.969C394.122 612.12 401.976 616.497 409.575 621.019L454.918 647.44L492.564 669.713C499.433 673.793 506.284 678.319 513.444 681.851Z"/>
	<path fill="#068CA4" d="M513.501 258.248C528.401 262.377 541.035 270.789 554.204 278.567Q567.315 286.215 580.563 293.625L707.368 366.051C706.641 391.803 708.482 417.791 709.752 443.501C704.283 444.163 664.717 420.493 656.059 416.364C656.069 426.15 655.732 436.11 656.112 445.879Q685.444 463.428 715.033 480.538C724.701 486.113 737.158 491.591 745.602 498.737C748.203 505.662 746.133 557.584 746.091 569.58C737.303 575.335 686.572 608.303 680.32 608.631C672.777 603.426 664.457 599.487 656.634 594.741C656.527 595.061 656.385 595.372 656.313 595.702C655.253 600.551 656.05 616.332 656.051 622.35C656.052 638.499 655.834 654.681 656.241 670.824C657.234 710.303 660.147 743.504 626.993 771.945C612.839 784.087 595.629 792.167 579.664 801.583C566.229 809.506 553.428 818.826 538.897 824.714Q535.867 825.945 532.741 826.905Q529.615 827.864 526.416 828.546Q523.218 829.227 519.971 829.624Q516.725 830.022 513.457 830.132L513.433 762.75L513.542 762.386L513.444 681.851C512.925 664.538 513.303 647.111 513.306 629.786L513.325 534.376L513.342 398.238C513.344 374.243 513.091 350.224 513.395 326.232C514.141 303.658 513.51 280.847 513.501 258.248Z"/>
	<path fill="#006E80" d="M586.519 554.014C610.108 567.205 633.262 581.191 656.634 594.741C656.527 595.061 656.385 595.372 656.313 595.702C655.253 600.551 656.05 616.332 656.051 622.35C656.052 638.499 655.834 654.681 656.241 670.824C657.234 710.303 660.147 743.504 626.993 771.945C612.839 784.087 595.629 792.167 579.664 801.583C566.229 809.506 553.428 818.826 538.897 824.714Q535.867 825.945 532.741 826.905Q529.615 827.864 526.416 828.546Q523.218 829.227 519.971 829.624Q516.725 830.022 513.457 830.132L513.433 762.75L513.542 762.386C523.024 758.562 531.465 752.633 540.225 747.431C551.116 740.964 563.293 735.367 572.395 726.356C578.946 719.871 583.16 711.857 585.124 702.873C588.96 685.327 586.543 666.286 586.517 648.45L586.519 554.014Z"/>
	<path fill="#12AAAF" d="M656.112 445.879Q685.444 463.428 715.033 480.538C724.701 486.113 737.158 491.591 745.602 498.737C748.203 505.662 746.133 557.584 746.091 569.58C737.303 575.335 686.572 608.303 680.32 608.631C681.115 598.112 680.356 587.349 680.005 576.809C679.581 564.113 679.33 551.436 678.295 538.769Q633.64 511.784 588.422 485.753Q609.096 473.436 630.074 461.644C638.83 456.666 648.1 452 656.112 445.879Z"/>
	<path fill="#006E80" d="M745.602 498.737C748.203 505.662 746.133 557.584 746.091 569.58C737.303 575.335 686.572 608.303 680.32 608.631C681.115 598.112 680.356 587.349 680.005 576.809C679.581 564.113 679.33 551.436 678.295 538.769C686.477 532.748 695.577 527.966 704.338 522.853L745.602 498.737Z"/>
	<path fill="#006E80" d="M586.596 377.237C597.194 381.87 607.159 388.489 617.261 394.135C630.089 401.304 643.955 408.039 656.059 416.364C656.069 426.15 655.732 436.11 656.112 445.879C648.1 452 638.83 456.666 630.074 461.644Q609.096 473.436 588.422 485.753C588.271 485.664 588.09 485.611 587.969 485.484C586.865 484.325 586.729 481.517 586.622 479.999C585.743 467.554 586.484 454.898 586.542 442.423L586.596 377.237Z"/>
	<path fill="#F07913" d="M321.483 645.325C317.225 638.034 313.142 630.205 312.031 621.733C310.294 608.475 311.46 595.166 311.492 581.861L311.545 509.896L311.509 439.456C311.477 426.752 310.368 414.049 311.972 401.39C313.374 390.33 317.498 378.329 324.4 369.484Q325.924 367.547 327.587 365.727Q329.251 363.908 331.045 362.218Q332.838 360.527 334.753 358.974Q336.667 357.421 338.691 356.014C347.938 349.606 358.103 344.271 367.814 338.585L421.77 306.976L467.181 279.992C476.88 274.135 486.444 267.605 496.687 262.739C502.232 260.105 507.434 259.02 513.501 258.248C513.51 280.847 514.141 303.658 513.395 326.232Q472.701 350.023 432.38 374.443C419.04 382.412 403.745 389.202 391.944 399.365C385.646 404.789 380.494 411.696 378.341 419.818C373.984 436.255 376.048 464.857 376.377 482.789Q376.559 502.581 376.517 522.374C376.526 542.447 374.661 563.287 376.636 583.235C377.25 589.436 378.81 595.342 382.002 600.734C383.328 602.973 385.044 605.179 386.935 606.969C381.476 611.695 373.369 615.179 367.013 618.69C351.773 627.108 335.683 635.265 321.483 645.325Z"/>
	<path fill="#FEB424" d="M386.935 606.969C394.122 612.12 401.976 616.497 409.575 621.019L454.918 647.44L492.564 669.713C499.433 673.793 506.284 678.319 513.444 681.851L513.542 762.386L513.433 762.75C513.336 762.675 513.255 762.572 513.141 762.526C509.152 760.94 505.456 759.663 501.593 757.631C493.851 753.559 486.455 748.042 478.908 743.517L433.158 716.309L376.621 682.843C361.083 673.84 345.05 665.344 330.374 654.962C326.645 652.324 323.877 649.18 321.483 645.325C335.683 635.265 351.773 627.108 367.013 618.69C373.369 615.179 381.476 611.695 386.935 606.969Z"/>
	<path fill="#006E80" d="M779.348 322.872C778.952 348.876 778.009 375.242 779.502 401.212C756.837 416.156 732.373 428.482 709.752 443.501C708.482 417.791 706.641 391.803 707.368 366.051C716.574 358.889 727.592 353.56 737.704 347.757Q758.758 335.702 779.348 322.872Z"/>
</svg>
